HIERARCHY
ROOT hip
{
	OFFSET 0.000000 0.000000 0.000000 
	CHANNELS 6 Xposition Yposition Zposition Xrotation Zrotation Yrotation
	JOINT abdomen
	{
		OFFSET 0.000000 3.402643 0.000000 
		CHANNELS 3 Xrotation Zrotation Yrotation
		JOINT chest
		{
			OFFSET 0.000000 8.438565 -0.680529 
			CHANNELS 3 Xrotation Zrotation Yrotation
			JOINT neck
			{
				OFFSET 0.000000 10.207942 -0.272212 
				CHANNELS 3 Xrotation Zrotation Yrotation
				JOINT head
				{
					OFFSET 0.000000 3.130431 0.000000 
					CHANNELS 3 Xrotation Zrotation Yrotation
					End Site
					{
						OFFSET 0.000000 3.130435 0.000000 
					}
				}
			}
			JOINT lCollar
			{
				OFFSET 3.470700 6.669187 -0.816635 
				CHANNELS 3 Yrotation Zrotation Xrotation
				JOINT lShldr
				{
					OFFSET 3.198488 0.000000 0.000000 
					CHANNELS 3 Zrotation Yrotation Xrotation
					JOINT lForeArm
					{
						OFFSET 10.139888 0.000000 0.000000 
						CHANNELS 3 Yrotation Zrotation Xrotation
						JOINT lHand
						{
							OFFSET 8.370511 0.000000 0.000000 
							CHANNELS 3 Zrotation Yrotation Xrotation
							End Site
							{
								OFFSET 4.083176 0.000000 0.000000 
							}
						}
					}
				}
			}
			JOINT rCollar
			{
				OFFSET -3.470700 6.669187 -0.816635 
				CHANNELS 3 Yrotation Zrotation Xrotation
				JOINT rShldr
				{
					OFFSET -3.198488 0.000000 0.000000 
					CHANNELS 3 Zrotation Yrotation Xrotation
					JOINT rForeArm
					{
						OFFSET -10.139888 0.000000 0.000000 
						CHANNELS 3 Yrotation Zrotation Xrotation
						JOINT rHand
						{
							OFFSET -8.370511 0.000000 0.000000 
							CHANNELS 3 Zrotation Yrotation Xrotation
							End Site
							{
								OFFSET -4.083176 0.000000 0.000000 
							}
						}
					}
				}
			}
		}
	}
	JOINT lThigh
	{
		OFFSET 5.308129 -1.633274 1.361059 
		CHANNELS 3 Xrotation Zrotation Yrotation
		JOINT lShin
		{
			OFFSET -2.041588 -20.007561 0.000000 
			CHANNELS 3 Xrotation Zrotation Yrotation
			JOINT lFoot
			{
				OFFSET 0.000000 -19.190928 -1.224953 
				CHANNELS 3 Xrotation Yrotation Zrotation
				End Site
				{
					OFFSET 0.000000 -2.449906 4.627600 
				}
			}
		}
	}
	JOINT rThigh
	{
		OFFSET -5.308129 -1.633274 1.361059 
		CHANNELS 3 Xrotation Zrotation Yrotation
		JOINT rShin
		{
			OFFSET 2.041588 -20.007561 0.000000 
			CHANNELS 3 Xrotation Zrotation Yrotation
			JOINT rFoot
			{
				OFFSET 0.000000 -19.190928 -1.224953 
				CHANNELS 3 Xrotation Yrotation Zrotation
				End Site
				{
					OFFSET 0.000000 -2.449906 4.627600 
				}
			}
		}
	}
}
MOTION
Frames: 13
Frame Time: 0.033333
0.007493 47.678970 2.009938 0.550232 -0.683564 0.537071 0.000000 0.000000 0.000000 2.990029 -0.205071 -0.488313 1.860993 -0.957022 0.253871 4.364281 -0.898374 0.683663 -1.844392 -5.415713 3.255247 -53.870487 -1.356387 10.972369 -50.367001 -3.253144 21.890507 4.647577 5.963472 -3.425672 3.273451 13.645365 2.905572 53.814789 -11.558330 6.649455 39.703915 9.007722 17.265495 -10.570335 -8.722413 -3.090124 -7.206448 14.480696 4.988936 21.668919 0.299701 8.566391 -11.172413 1.510900 -15.241868 -2.861282 -15.933715 -9.384799 16.054321 1.423137 -4.309531 -9.421196 -1.298204 15.318345 
-0.304611 47.643761 1.993195 0.591609 -0.400370 0.585923 0.000000 0.000000 0.000000 3.039793 -0.302722 -0.507857 1.890287 -0.996085 0.244104 4.010328 -1.025307 0.732479 -1.843113 -5.544271 3.295041 -54.916321 0.104270 9.479226 -50.841156 -2.795681 20.507923 5.825414 5.563123 -3.421422 3.211778 13.665204 2.957702 53.683952 -11.314925 6.992944 39.491936 9.184946 17.193535 -10.632836 -8.952034 -3.066081 -6.922366 14.644233 5.094836 21.124096 0.260485 8.131745 -10.932680 1.490020 -15.524108 -4.120577 -16.088758 -9.424569 18.331038 1.821267 -4.922370 -10.286164 -1.356705 14.807080 
-0.570414 47.646965 1.955258 0.780536 -0.107420 0.380859 0.000000 0.000000 0.000000 3.001792 -0.439437 -0.488342 1.987044 -1.005846 0.292924 3.572775 -1.367027 0.879122 -1.754278 -5.606593 3.266075 -56.565910 1.524822 7.563118 -50.797260 -2.454074 18.587231 7.102465 5.307064 -3.408377 3.138701 13.426195 2.943924 53.691872 -10.947537 7.402134 39.156887 9.394213 17.029081 -10.965131 -9.084539 -3.040225 -6.375664 14.721911 5.365048 20.130663 -0.052259 6.958465 -10.838457 1.485843 -15.425149 -4.813457 -16.476870 -9.579618 19.306381 2.187482 -4.383427 -10.866464 -1.395907 14.291495 
-0.836145 47.650257 1.917374 0.957601 0.185546 0.175812 0.000000 0.000000 0.000000 2.953949 -0.566387 -0.478589 2.093550 -1.015607 0.341743 3.143236 -1.708711 1.025808 -1.655757 -5.668459 3.237118 -58.264149 2.884133 5.605157 -50.753174 -2.119033 16.675686 8.379498 5.061558 -3.397200 3.066033 13.177459 2.932458 53.692078 -10.578530 7.812933 38.821159 9.618154 16.877802 -11.295445 -9.228495 -3.020354 -5.829014 14.791401 5.645963 19.133074 -0.380674 5.798221 -10.747350 1.475345 -15.350928 -5.497493 -16.869802 -9.750664 20.272928 2.519518 -3.824376 -11.423268 -1.402044 13.788569 
-1.070470 47.685425 1.903108 1.191346 0.087891 -0.039062 0.000000 0.000000 0.000000 2.921826 -0.214835 -0.507846 1.977104 -0.693339 0.439421 3.112256 -1.972208 1.221324 -1.635570 -5.382676 3.206131 -60.875282 4.375890 1.798061 -50.411972 -0.922664 19.037922 6.511725 4.795042 -3.432025 3.006758 13.640093 2.877939 53.336502 -10.540759 7.548834 39.260422 9.432111 16.904795 -11.120722 -9.215425 -3.029612 -5.654275 15.311218 6.001173 18.320360 -0.471409 5.820171 -10.200736 1.422431 -15.495336 -5.575764 -16.373108 -9.438493 19.955963 2.518597 -3.259629 -11.577413 -1.404417 13.499954 
-1.304767 47.720558 1.888809 1.425781 0.000000 -0.263672 0.000000 0.000000 0.000000 2.889320 0.136713 -0.546873 1.851990 -0.371077 0.537098 3.069084 -2.245398 1.426599 -1.624501 -5.087981 3.184937 -63.586323 5.673344 -2.079811 -50.116558 0.275753 21.394701 4.644018 4.522922 -3.462886 2.945940 14.103360 2.833055 52.981422 -10.506732 7.282796 39.698708 9.253433 16.937372 -10.936123 -9.201869 -3.040380 -5.476897 15.833164 6.377438 17.507013 -0.547285 5.835917 -9.643978 1.333794 -15.644099 -5.614945 -15.886668 -9.140149 19.617916 2.529074 -2.694859 -11.730722 -1.398266 13.193501 
-1.528200 47.739254 1.859868 1.701559 -0.371086 -0.361384 0.000000 0.000000 0.000000 2.768870 0.478494 -0.546856 1.883834 -0.078119 0.683593 2.866686 -2.294057 1.573351 -1.592381 -4.545750 3.103932 -66.743942 6.791416 -6.246644 -49.231125 1.412766 22.186073 3.361271 4.410158 -3.487013 2.924747 14.281352 2.724349 52.844086 -10.559976 7.262238 40.125381 9.056917 16.898294 -11.370896 -9.272687 -3.009172 -5.439166 16.394407 6.736830 16.837364 -0.598186 6.014938 -9.090700 1.287881 -15.889936 -6.024623 -15.426184 -8.964667 19.782604 2.772932 -2.646343 -11.872571 -1.370823 12.734199 
-1.751556 47.757950 1.830860 1.978602 -0.742164 -0.459072 0.000000 0.000000 0.000000 2.658046 0.820274 -0.556584 1.907268 0.205057 0.830108 2.673805 -2.342695 1.720107 -1.550179 -3.993087 3.014220 -69.989769 7.663481 -10.467792 -48.361275 2.561718 22.953239 2.089724 4.289091 -3.498547 2.911508 14.460399 2.625077 52.706680 -10.613361 7.241961 40.551704 8.860479 16.856627 -11.796934 -9.350591 -2.967104 -5.400250 16.960983 7.126266 16.157131 -0.657071 6.194257 -8.531951 1.212512 -16.104805 -6.423581 -14.952205 -8.783100 19.935215 3.016267 -2.597833 -12.014432 -1.319721 12.286243 
-1.942715 47.778831 1.774317 2.273974 -0.742141 -0.644604 0.000000 0.000000 0.000000 2.606534 0.976504 -0.625076 1.968773 0.371047 0.908247 2.330516 -2.440043 1.915653 -1.660234 -3.821257 2.964032 -72.453903 8.473899 -13.270283 -47.437176 3.089063 19.631758 4.007825 6.066869 -3.422069 2.791043 14.373911 2.575744 52.021473 -10.145531 8.640066 40.691586 9.174970 16.061068 -12.747466 -9.303857 -2.924438 -4.970089 17.319006 7.545267 15.137697 -0.939364 5.037151 -8.413063 1.195103 -15.989705 -6.872563 -14.805770 -8.792071 20.203957 3.290828 -2.390205 -12.202959 -1.307455 11.830704 
-2.133797 47.799656 1.717785 2.569330 -0.732343 -0.840025 0.000000 0.000000 0.000000 2.544811 1.122962 -0.703181 2.020965 0.537030 0.986376 1.987352 -2.527598 2.101442 -1.769991 -3.649243 2.914532 -74.962257 9.161226 -16.090818 -46.479408 3.558101 16.304544 5.944272 7.838621 -3.274595 2.670429 14.287638 2.523964 51.340248 -9.657176 10.022382 40.825100 9.500947 15.273190 -13.688042 -9.257803 -2.885671 -4.531141 17.683792 7.988565 14.146761 -1.250194 3.851607 -8.279584 1.160807 -15.860358 -7.323970 -14.656603 -8.783130 20.450155 3.572123 -2.200376 -12.381525 -1.276774 11.394587 
-2.294463 47.792484 1.666788 2.677471 -0.722565 -0.908377 0.000000 0.000000 0.000000 2.724373 1.220543 -0.927940 1.915161 0.595604 1.045069 1.865012 -2.410124 2.326268 -1.818441 -3.647747 3.080651 -75.056358 9.807809 -14.638540 -45.124298 2.604175 10.155884 10.499783 10.331747 -2.939599 2.454975 14.540528 2.678183 50.323196 -9.029733 11.166903 41.419758 9.639885 15.640408 -14.038012 -9.138016 -2.884756 -4.169720 18.083996 8.567171 13.556787 -1.659631 2.640023 -8.254593 1.152059 -15.691620 -7.820933 -14.351877 -8.388021 20.829462 3.251832 -2.519003 -12.457564 -1.304754 11.458624 
-2.455022 47.785328 1.615729 2.795307 -0.703021 -0.986494 0.000000 0.000000 0.000000 2.893629 1.318097 -1.142725 1.799711 0.654176 1.103667 1.733391 -2.302406 2.550692 -1.857719 -3.636260 3.246775 -75.130096 10.448545 -13.181780 -43.886036 1.508735 4.047476 15.088028 12.789224 -2.406198 2.235549 14.792789 2.844389 49.309742 -8.369312 12.311300 41.997040 9.786616 16.015886 -14.379522 -9.015647 -2.877580 -3.788519 18.477160 9.170017 12.974708 -2.109537 1.419105 -8.250765 1.133585 -15.507229 -8.326997 -14.055265 -7.975522 21.191683 2.937596 -2.838739 -12.531113 -1.310830 11.511795 
-2.572530 47.787346 1.538940 2.834669 -0.673714 -1.054844 0.000000 0.000000 0.000000 3.151472 1.405883 -1.308919 1.820867 0.751819 1.084147 1.602789 -2.409322 2.755986 -2.124349 -3.680486 3.481173 -73.876335 11.222267 -9.930417 -42.595604 0.168999 2.697874 14.824215 13.455026 -2.345955 2.072017 15.186229 3.060189 48.379753 -7.824671 13.165037 42.264690 9.828687 16.810078 -14.988046 -8.699423 -2.888716 -3.349488 18.765659 9.738686 12.318933 -2.441251 0.276406 -8.158708 1.086786 -15.363934 -8.688402 -13.831341 -7.750660 21.486954 2.801290 -3.144629 -12.534508 -1.293850 11.466198 
